<svg xmlns="http://www.w3.org/2000/svg" viewBox="0 0 64 64" id="error-page"><g data-name="5"><path d="M55,7H9a4,4,0,0,0-4,4V53a4,4,0,0,0,4,4H55a4,4,0,0,0,4-4V11A4,4,0,0,0,55,7ZM57,53a2,2,0,0,1-2,2H9a2,2,0,0,1-2-2V11A2,2,0,0,1,9,9H55a2,2,0,0,1,2,2Z"></path><path d="M52 19.41H11.88a1 1 0 0 0-1 1V50a1 1 0 0 0 1 1H52a1 1 0 0 0 1-1V20.41A1 1 0 0 0 52 19.41zM51 49H12.88V21.41H51zM52.13 12.4H46.35a1 1 0 0 0-1 1v3.42a1 1 0 0 0 1 1h5.78a1 1 0 0 0 1-1V13.4A1 1 0 0 0 52.13 12.4zm-1 3.42H47.35V14.4h3.78zM36.33 17.82h5.78a1 1 0 0 0 1-1V13.4a1 1 0 0 0-1-1H36.33a1 1 0 0 0-1 1v3.42A1 1 0 0 0 36.33 17.82zm1-3.42h3.78v1.42H37.33z"></path><path d="M22 35.69h3v4.16a1 1 0 0 0 2 0V31a1 1 0 0 0-2 0v2.69H23V31a1 1 0 0 0-1-1h0a1 1 0 0 0-1 1v3.69a1 1 0 0 0 1 1zM38 35.69h3v4.16a1 1 0 0 0 2 0V31a1 1 0 0 0-2 0v2.69H39V31a1 1 0 0 0-1-1h0a1 1 0 0 0-1 1v3.69a1 1 0 0 0 1 1zM30 40.85h4a1 1 0 0 0 1-1V31a1 1 0 0 0-1-1H30a1 1 0 0 0-1 1v8.85A1 1 0 0 0 30 40.85zM31 32h2v6.85H31z"></path></g></svg>