<svg xmlns="http://www.w3.org/2000/svg" enable-background="new 0 0 64 64" viewBox="0 0 64 64"><path d="M12,63h40c2.757,0,5-2.243,5-5V6c0-2.757-2.243-5-5-5H12C9.243,1,7,3.243,7,6v52C7,60.757,9.243,63,12,63z M52,61H12
		c-1.654,0-3-1.346-3-3V13h46v45C55,59.654,53.654,61,52,61z M55,6v5H27V3h25C53.654,3,55,4.346,55,6z M12,3h13v8H9V6
		C9,4.346,10.346,3,12,3z"/><rect width="15" height="2" x="12" y="24"/><rect width="23" height="2" x="29" y="24"/><rect width="24" height="2" x="12" y="20"/><rect width="14" height="2" x="38" y="20"/><rect width="4" height="2" x="12" y="6"/><rect width="4" height="2" x="18" y="6"/><rect width="22" height="2" x="30" y="6"/><path d="M33,34H13c-0.552,0-1,0.448-1,1v10c0,0.552,0.448,1,1,1h20c0.552,0,1-0.448,1-1V35C34,34.448,33.552,34,33,34z M14,36h7v8
		h-7V36z M32,44h-9v-8h4v3h2v-3h3V44z"/><rect width="3" height="2" x="17" y="41"/><path d="M53.479,51.122l-11-6c-0.357-0.195-0.796-0.154-1.112,0.104c-0.315,0.257-0.442,0.68-0.323,1.068l4,13
		c0.127,0.416,0.509,0.701,0.944,0.706c0.004,0,0.008,0,0.012,0c0.43,0,0.812-0.275,0.949-0.684l1.816-5.45l4.431-0.886
		c0.412-0.083,0.729-0.414,0.792-0.83C54.052,51.734,53.848,51.323,53.479,51.122z M47.804,52.019
		c-0.352,0.07-0.639,0.324-0.752,0.664l-1.013,3.04l-2.36-7.668l6.426,3.504L47.804,52.019z"/></svg>